<?xml version="1.0" standalone="no"?><!DOCTYPE svg PUBLIC "-//W3C//DTD SVG 1.1//EN" "http://www.w3.org/Graphics/SVG/1.1/DTD/svg11.dtd"><svg class="icon" width="256px" height="256.00px" viewBox="0 0 1024 1024" version="1.1" xmlns="http://www.w3.org/2000/svg"><path d="M534.487665 890.116757c-28.504194 0-74.281797 0-74.281797 0L255.948835 1001.541499 255.948835 797.283442c-101.822037-71.479985-167.135578-174.064384-167.135578-297.148677 0-215.362976 199.540615-389.964596 445.674409-389.964596 246.134817 0 445.675432 174.60162 445.675432 389.964596C980.183564 715.535603 780.642948 890.116757 534.487665 890.116757L534.487665 890.116757 534.487665 890.116757zM534.487665 165.863608c-215.362976 0-390.000412 149.660578-390.000412 334.271156 0 113.279996 66.61314 218.092134 167.172417 278.539854l0 123.811864 148.527778-68.079538c0 0 41.765219 0 74.28282 0 215.362976 0 390.000412-149.662625 390.000412-334.272179C924.491147 315.505767 749.852688 165.863608 534.487665 165.863608L534.487665 165.863608 534.487665 165.863608zM757.354546 555.846624c-30.79026 0-55.729256-24.940019-55.729256-55.731302 0-30.789237 24.938995-55.729256 55.729256-55.729256 30.753421 0 55.692417 24.940019 55.692417 55.729256C813.046962 530.906605 788.107967 555.846624 757.354546 555.846624L757.354546 555.846624 757.354546 555.846624zM534.487665 555.846624c-30.789237 0-55.729256-24.940019-55.729256-55.731302 0-30.789237 24.941042-55.729256 55.729256-55.729256 30.792307 0 55.731302 24.940019 55.731302 55.729256C590.218968 530.906605 565.279972 555.846624 534.487665 555.846624L534.487665 555.846624 534.487665 555.846624zM311.641251 555.846624c-30.752398 0-55.69344-24.940019-55.69344-55.711859 0-30.771841 24.941042-55.730279 55.69344-55.730279 30.79026 0 55.730279 24.940019 55.730279 55.730279C367.37153 530.924002 342.413092 555.846624 311.641251 555.846624L311.641251 555.846624 311.641251 555.846624z" /></svg>