<?xml version="1.0" encoding="utf-8"?>
<!-- Generator: Adobe Illustrator 22.1.0, SVG Export Plug-In . SVG Version: 6.00 Build 0)  -->
<svg version="1.1" id="图层_1" xmlns="http://www.w3.org/2000/svg" xmlns:xlink="http://www.w3.org/1999/xlink" x="0px" y="0px"
	 viewBox="0 0 340.2 56.7" style="enable-background:new 0 0 340.2 56.7;" xml:space="preserve">
<style type="text/css">
	.st0{fill:#00a4ff;}
</style>
<g>
	<g>
		<path class="st0" d="M108.4,8.6c0-0.3,0.1-0.5,0.1-0.7V7.1l-3.2-0.3v0.6c0,0.1-0.1,0.3-0.1,0.3C105.1,8.2,105,8.6,105,9
			c-0.3,1.4-0.7,2.7-1.3,4c-1.7,4.2-4.5,7.2-8,9.2l-0.5,0.3l1.6,2.8l0.5-0.2c1.7-0.9,3.3-2,4.7-3.5v26.8h3.2V17.4
			c1.2-2,2.2-4.2,2.7-6.6C108.1,10,108.3,9.3,108.4,8.6z"/>
		<path class="st0" d="M121.8,14.3h14.8v-3.2h-14.1c0.1-0.4,0.2-0.7,0.3-1.1l0.2-1.3c0.3-1.3,0.3-1.3,0.3-1.4V6.9l-3.1-0.5L120,7.3
			c0,0.3-0.1,0.5-0.2,0.8c-0.2,0.9-0.4,1.8-0.6,2.8h-10v3.2h9.1c-0.5,2-1.1,4-1.7,5.8h-9.1v3.2h7.9c-0.8,1.9-1.6,3.6-2.4,4.7
			c-0.2,0.2-0.4,0.5-0.4,0.9V30c0,1,0.6,1.6,1.6,1.6h17l-7.7,9.2l-10-3.9l-1.2,3l20.3,8l1.2-3l-7.1-2.8l8.4-10.1
			c0.3-0.4,0.4-0.6,0.4-1v-0.9c0-1.1-0.6-1.6-1.6-1.6h-17.4c0.9-1.6,1.7-3.4,2.5-5.2h19.5v-3.2H120C120.8,18,121.3,16.1,121.8,14.3z
			"/>
		<path class="st0" d="M182.1,9.2h-11c-1,0-1.6,0.5-1.6,1.6v14.5c0,1,0.5,1.6,1.6,1.6h11c1,0,1.6-0.5,1.6-1.6V10.9
			C183.7,9.8,183.1,9.2,182.1,9.2z M180.5,12.4v11.3h-7.8V12.4H180.5z"/>
		<path class="st0" d="M156.8,22.9l9.8,5.4l1.6-2.9l-9.1-5h8.4v-3.2h-8.9v-4.5h7.8V9.5h-12.9c0.1-0.3,0.3-0.5,0.4-0.7l0.5-1.2
			l-3.1-1l-0.5,1.1c-0.1,0.2-0.2,0.5-0.4,0.7s-0.4,0.5-0.5,0.8c-1.2,1.6-2.7,3-4.5,4l-0.5,0.3l1.6,2.8l0.5-0.3
			c1.6-0.9,3.1-2.1,4.4-3.4h4.2v4.5h-9.9v3.2h9c-0.5,0.7-1.2,1.5-2,2.2c-1.6,1.3-3.7,2.4-6.3,3.2l-0.5,0.2l1,3l0.5-0.2
			C151.7,27.4,154.9,25.4,156.8,22.9z"/>
		<path class="st0" d="M179.7,29h-26.6c-1,0-1.6,0.6-1.6,1.6v17.3h3.2v-1.6H178v1.6h3.2V30.7C181.3,29.7,180.7,29,179.7,29z
			 M154.7,36.1v-3.8H178v3.8H154.7z M178.1,39.3v3.8h-23.5v-3.8H178.1z"/>
		<rect x="194.1" y="9.8" class="st0" width="33.9" height="3.3"/>
		<path class="st0" d="M190.4,25.3h14l-10.4,15.5c-0.2,0.3-0.2,0.5-0.2,0.8v1.6c0,1,0.5,1.6,1.6,1.6h21.1c1.3,0,2.8-0.3,4.5-0.7
			c0.6-0.2,1.3-0.4,2-0.5l1-0.4l2.3,4.8l2.9-1.4L221.7,31l-2.9,1.4l3.7,7.9c0,0,0,0-0.1,0l-0.7,0.3c-0.5,0.2-1.1,0.4-1.6,0.5
			c-1.4,0.4-2.6,0.5-3.7,0.5h-19.1l10.8-16.4h23.7v-3.2h-41.5L190.4,25.3L190.4,25.3z"/>
		
			<rect x="242.9" y="7.4" transform="matrix(0.8531 -0.5217 0.5217 0.8531 29.558 129.3355)" class="st0" width="3.2" height="9.6"/>
		<path class="st0" d="M265.5,26.4h9c1,0,1.6-0.5,1.6-1.6v-15c0-1-0.5-1.6-1.6-1.6h-21.4c-1.1,0-1.6,0.5-1.6,1.6v15
			c0,1,0.6,1.6,1.6,1.6h9v3.5h-12.9V33h6.5v0.1c-0.1,0.4-0.2,0.6-0.4,1c-0.4,1.1-0.8,2.1-1.3,3.1c-1.4,3-2.9,5.7-4.7,8l-0.3,0.4
			l2.6,2l0.3-0.4c2.2-2.7,4-5.9,5.5-9.4c0.5-1.1,0.9-2.2,1.3-3.4c0-0.1,0.2-0.7,0.5-1.4h3v15.2h3.3V33.1h2.9
			c0.1,0.5,0.4,1.1,0.4,1.4c0.4,1.1,0.7,2.2,1.2,3.3c1.5,3.5,3.4,6.7,5.5,9.4l0.3,0.4l2.6-2l-0.3-0.4c-1.8-2.3-3.4-5-4.7-8
			c-0.5-1.1-0.8-2.1-1.2-3.1c-0.1-0.4-0.3-0.6-0.4-1l0,0h7.3v-3.2h-13.6L265.5,26.4L265.5,26.4z M265.5,15.4v-4h7.4v4H265.5z
			 M265.5,23.2v-4.6h7.4v4.6H265.5z M254.8,15.4v-4h7.4v4H254.8z M254.8,23.2v-4.6h7.4v4.6H254.8z"/>
		<path class="st0" d="M251.8,36.6l-2.6-1.7l-0.3,0.5c-0.5,0.9-1.2,1.8-1.9,2.7c-0.3,0.4-0.5,0.7-0.8,1v-18c0-1-0.5-1.6-1.6-1.6
			h-6.9v3.2h5.3v20.5c0,0.5,0.2,1,1,1.5c0.3,0.1,0.5,0.1,0.6,0.1c0.3,0,0.6-0.1,0.9-0.3c0.2-0.1,0.3-0.2,0.3-0.3
			c0.1-0.1,0.3-0.2,0.4-0.4c0.5-0.5,0.9-0.9,1.4-1.5c1.5-1.6,2.8-3.4,4-5.3L251.8,36.6z"/>
		<path class="st0" d="M305.7,43.2v-3.8h16.2v-3.3h-16.2v-3.7h10.6c1,0,1.6-0.5,1.6-1.6v-8.1c0-1.1-0.5-1.6-1.6-1.6h-24.4
			c-1,0-1.6,0.6-1.6,1.6v8.1c0,1,0.5,1.6,1.6,1.6h10.6v3.7h-15.9v3.3h15.8v3.9h-18.3v3.2h40.2v-3.2L305.7,43.2L305.7,43.2z
			 M293.5,29.1v-4.9h21v4.9H293.5z"/>
		<path class="st0" d="M288.2,16.6h32.1v4.7h3.2v-6.2c0-1-0.5-1.6-1.6-1.6h-5.5l2.2-4.6l-2.9-1.4l-2.8,5.9h-7V7h-3.3v6.4h-7
			l-2.8-5.9l-2.9,1.4l2.3,4.6h-5.5c-1,0-1.6,0.5-1.6,1.6v6.6h3.2L288.2,16.6L288.2,16.6z"/>
	</g>
	<path class="st0" d="M48.8,40.2l15.2-8.7c0.6-0.3,0.6-1.3,0-1.6l-15.2-8.7c-0.6-0.3-1.4,0.1-1.4,0.8v17.5
		C47.4,40.1,48.2,40.5,48.8,40.2z"/>
	<path class="st0" d="M40.1,51.6h26.5c9.9,0,19.8-3.2,23.1-11.9C93.8,28.5,88,19.8,80,16.8c-5.6-2.1-10-1.1-10-1.1
		c-1.6-2.8-6.2-11.5-20.9-11.4c-21.4,0.8-24,17.2-24,17.2C21.8,22,12,25.3,12,36C12,48.4,26.6,51.6,40.1,51.6z M24.3,29.4
		c0.2,6.8,3.9,11.6,8.7,14.8c1.2,0.7,2.5,0.9,3.4,0c0.5-0.7,1-1.7-0.7-3.7c-2-2.3-3.7-5.1-4.5-8.7c-2.1-10.1,5.1-20,15.2-22.4
		c9.4-2.2,17.9,2.4,21.8,9.9l0,0l1.1,1.8c0.4,0.8,1.5,1.1,2.3,0.6l0,0c0.8-0.4,1.1-1.5,0.6-2.3l-0.4-0.7c4.7-0.6,14.5,2.1,14.5,14
		c0,8.6-7.4,16-21.1,16h-1.9c2.8-1.8,5.2-4.2,7-7.2c0.5-0.8,0.2-1.8-0.6-2.2C69,39,68,39.3,67.6,40c-2.8,4.7-7.4,7.8-12.5,8.8H41
		l-0.1,0c-7.1-0.2-21.6-1.7-23.4-10.1C16.6,33.5,19.5,29.4,24.3,29.4z"/>
	<path class="st0" d="M71.1,38.7c0.9,0,1.7-0.7,1.7-1.7s-0.7-1.7-1.7-1.7c-0.9,0-1.7,0.7-1.7,1.7C69.4,37.9,70.2,38.7,71.1,38.7z"/>
	<path class="st0" d="M72.8,34.4c0.9,0,1.7-0.7,1.7-1.7c0-0.9-0.7-1.7-1.7-1.7s-1.7,0.7-1.7,1.7C71.2,33.7,71.9,34.4,72.8,34.4z"/>
</g>
</svg>
